{
  "accessors": [
    {
      "bufferView": 2,
      "componentType": 5126,
      "count": 2092,
      "max": [
        0.014999998733401299,
        0.06359551846981049,
        0.014999999664723873
      ],
      "min": [
        -0.015000000596046448,
        0.0,
        -0.014999999664723873
      ],
      "type": "VEC3"
    },
    {
      "bufferView": 2,
      "byteOffset": 25104,
      "componentType": 5126,
      "count": 2092,
      "max": [
        0.9999296069145203,
        1.0,
        0.9238796830177307
      ],
      "min": [
        -0.9774429202079773,
        -1.0,
        -0.9238796830177307
      ],
      "type": "VEC3"
    },
    {
      "bufferView": 1,
      "componentType": 5126,
      "count": 2092,
      "max": [
        1.0,
        0.9852567911148071
      ],
      "min": [
        -2.24789946656756e-08,
        0.0
      ],
      "type": "VEC2"
    },
    {
      "bufferView": 0,
      "componentType": 5125,
      "count": 3192,
      "type": "SCALAR"
    },
    {
      "bufferView": 2,
      "byteOffset": 50208,
      "componentType": 5126,
      "count": 2092,
      "max": [
        0.014999998733401299,
        0.06359551846981049,
        0.014999999664723873
      ],
      "min": [
        -0.015000000596046448,
        0.0,
        -0.014999999664723873
      ],
      "type": "VEC3"
    },
    {
      "bufferView": 2,
      "byteOffset": 75312,
      "componentType": 5126,
      "count": 2092,
      "max": [
        0.9999296069145203,
        1.0,
        0.9238796830177307
      ],
      "min": [
        -0.9774429202079773,
        -1.0,
        -0.9238796830177307
      ],
      "type": "VEC3"
    },
    {
      "bufferView": 1,
      "byteOffset": 16736,
      "componentType": 5126,
      "count": 2092,
      "max": [
        1.0,
        0.9852567911148071
      ],
      "min": [
        -2.24789946656756e-08,
        0.0
      ],
      "type": "VEC2"
    },
    {
      "bufferView": 0,
      "byteOffset": 12768,
      "componentType": 5125,
      "count": 3192,
      "type": "SCALAR"
    }
  ],
  "asset": {
    "extras": {
      "author": "danielpaulse (https://sketchfab.com/danielpaulse)",
      "license": "CC-BY-SA-4.0 (http://creativecommons.org/licenses/by-sa/4.0/)",
      "source": "https://sketchfab.com/3d-models/chess-piece-bishop-12125552604345b48af0543d4c397a9e",
      "title": "Chess Piece - Bishop"
    },
    "generator": "Sketchfab-12.68.0",
    "version": "2.0"
  },
  "bufferViews": [
    {
      "buffer": 0,
      "byteLength": 25536,
      "name": "floatBufferViews",
      "target": 34963
    },
    {
      "buffer": 0,
      "byteLength": 33472,
      "byteOffset": 25536,
      "byteStride": 8,
      "name": "floatBufferViews",
      "target": 34962
    },
    {
      "buffer": 0,
      "byteLength": 100416,
      "byteOffset": 59008,
      "byteStride": 12,
      "name": "floatBufferViews",
      "target": 34962
    }
  ],
  "buffers": [
    {
      "byteLength": 159424,
      "uri": "bishop.bin"
    }
  ],
  "materials": [
    {
      "doubleSided": true,
      "name": "Black_Square",
      "pbrMetallicRoughness": {
        "baseColorFactor": [
          0.00762073,
          0.00560855,
          0.00803688,
          1.0
        ],
        "metallicFactor": 0.875,
        "roughnessFactor": 0.15
      }
    },
    {
      "doubleSided": true,
      "name": "White_Square",
      "pbrMetallicRoughness": {
        "baseColorFactor": [
          0.882937,
          1.0,
          1.0,
          1.0
        ],
        "metallicFactor": 0.65,
        "roughnessFactor": 0.15
      }
    }
  ],
  "meshes": [
    {
      "name": "Object_0",
      "primitives": [
        {
          "attributes": {
            "NORMAL": 1,
            "POSITION": 0,
            "TEXCOORD_0": 2
          },
          "indices": 3,
          "material": 0,
          "mode": 4
        }
      ]
    },
    {
      "name": "Object_1",
      "primitives": [
        {
          "attributes": {
            "NORMAL": 5,
            "POSITION": 4,
            "TEXCOORD_0": 6
          },
          "indices": 7,
          "material": 1,
          "mode": 4
        }
      ]
    }
  ],
  "nodes": [
    {
      "children": [
        1
      ],
      "matrix": [
        1.0,
        0.0,
        0.0,
        0.0,
        0.0,
        2.220446049250313e-16,
        -1.0,
        0.0,
        0.0,
        1.0,
        2.220446049250313e-16,
        0.0,
        0.0,
        0.0,
        0.0,
        1.0
      ],
      "name": "Sketchfab_model"
    },
    {
      "children": [
        2
      ],
      "name": "root"
    },
    {
      "children": [
        3,
        5
      ],
      "matrix": [
        1.0,
        0.0,
        0.0,
        0.0,
        0.0,
        2.220446049250313e-16,
        1.0,
        0.0,
        0.0,
        -1.0,
        2.220446049250313e-16,
        0.0,
        0.0,
        0.0,
        0.0,
        1.0
      ],
      "name": "GLTF_SceneRootNode"
    },
    {
      "children": [
        4
      ],
      "matrix": [
        1.334027886390686,
        0.0,
        0.0,
        0.0,
        0.0,
        1.334027886390686,
        0.0,
        0.0,
        0.0,
        0.0,
        1.334027886390686,
        0.0,
        -0.0227760449051857,
        0.0,
        0.0,
        1.0
      ],
      "name": "Bishop_0"
    },
    {
      "mesh": 0,
      "name": "Object_4"
    },
    {
      "children": [
        6
      ],
      "matrix": [
        1.334027886390686,
        0.0,
        0.0,
        0.0,
        0.0,
        1.334027886390686,
        0.0,
        0.0,
        0.0,
        0.0,
        1.334027886390686,
        0.0,
        0.023499097675085068,
        0.0,
        0.0,
        1.0
      ],
      "name": "Bishop.001_1"
    },
    {
      "mesh": 1,
      "name": "Object_6"
    }
  ],
  "scene": 0,
  "scenes": [
    {
      "name": "Sketchfab_Scene",
      "nodes": [
        0
      ]
    }
  ]
}
