{
  "accessors": [
    {
      "bufferView": 2,
      "componentType": 5126,
      "count": 2501,
      "max": [
        0.014999999664723873,
        0.06461253762245178,
        0.014999999664723873
      ],
      "min": [
        -0.014999999664723873,
        0.0,
        -0.014999999664723873
      ],
      "type": "VEC3"
    },
    {
      "bufferView": 2,
      "byteOffset": 30012,
      "componentType": 5126,
      "count": 2501,
      "max": [
        1.0,
        1.0,
        0.9897502064704895
      ],
      "min": [
        -1.0,
        -1.0,
        -0.9897502064704895
      ],
      "type": "VEC3"
    },
    {
      "bufferView": 1,
      "componentType": 5126,
      "count": 2501,
      "max": [
        1.0,
        1.0
      ],
      "min": [
        -2.24789946656756e-08,
        0.0
      ],
      "type": "VEC2"
    },
    {
      "bufferView": 0,
      "componentType": 5125,
      "count": 3885,
      "type": "SCALAR"
    },
    {
      "bufferView": 2,
      "byteOffset": 60024,
      "componentType": 5126,
      "count": 2501,
      "max": [
        0.014999999664723873,
        0.06461253762245178,
        0.014999999664723873
      ],
      "min": [
        -0.014999999664723873,
        0.0,
        -0.014999999664723873
      ],
      "type": "VEC3"
    },
    {
      "bufferView": 2,
      "byteOffset": 90036,
      "componentType": 5126,
      "count": 2501,
      "max": [
        1.0,
        1.0,
        0.9897502064704895
      ],
      "min": [
        -1.0,
        -1.0,
        -0.9897502064704895
      ],
      "type": "VEC3"
    },
    {
      "bufferView": 1,
      "byteOffset": 20008,
      "componentType": 5126,
      "count": 2501,
      "max": [
        1.0,
        1.0
      ],
      "min": [
        -2.24789946656756e-08,
        0.0
      ],
      "type": "VEC2"
    },
    {
      "bufferView": 0,
      "byteOffset": 15540,
      "componentType": 5125,
      "count": 3885,
      "type": "SCALAR"
    }
  ],
  "asset": {
    "extras": {
      "author": "danielpaulse (https://sketchfab.com/danielpaulse)",
      "license": "CC-BY-SA-4.0 (http://creativecommons.org/licenses/by-sa/4.0/)",
      "source": "https://sketchfab.com/3d-models/chess-piece-king-b3e64d44d32b4fb8916f4693460504c5",
      "title": "Chess Piece - King"
    },
    "generator": "Sketchfab-12.68.0",
    "version": "2.0"
  },
  "bufferViews": [
    {
      "buffer": 0,
      "byteLength": 31080,
      "name": "floatBufferViews",
      "target": 34963
    },
    {
      "buffer": 0,
      "byteLength": 40016,
      "byteOffset": 31080,
      "byteStride": 8,
      "name": "floatBufferViews",
      "target": 34962
    },
    {
      "buffer": 0,
      "byteLength": 120048,
      "byteOffset": 71096,
      "byteStride": 12,
      "name": "floatBufferViews",
      "target": 34962
    }
  ],
  "buffers": [
    {
      "byteLength": 191144,
      "uri": "king.bin"
    }
  ],
  "materials": [
    {
      "doubleSided": true,
      "name": "White_Square",
      "pbrMetallicRoughness": {
        "baseColorFactor": [
          0.882937,
          1.0,
          1.0,
          1.0
        ],
        "metallicFactor": 0.65,
        "roughnessFactor": 0.15
      }
    },
    {
      "doubleSided": true,
      "name": "Black_Square",
      "pbrMetallicRoughness": {
        "baseColorFactor": [
          0.00762073,
          0.00560855,
          0.00803688,
          1.0
        ],
        "metallicFactor": 0.875,
        "roughnessFactor": 0.15
      }
    }
  ],
  "meshes": [
    {
      "name": "Object_0",
      "primitives": [
        {
          "attributes": {
            "NORMAL": 1,
            "POSITION": 0,
            "TEXCOORD_0": 2
          },
          "indices": 3,
          "material": 0,
          "mode": 4
        }
      ]
    },
    {
      "name": "Object_1",
      "primitives": [
        {
          "attributes": {
            "NORMAL": 5,
            "POSITION": 4,
            "TEXCOORD_0": 6
          },
          "indices": 7,
          "material": 1,
          "mode": 4
        }
      ]
    }
  ],
  "nodes": [
    {
      "children": [
        1
      ],
      "matrix": [
        1.0,
        0.0,
        0.0,
        0.0,
        0.0,
        2.220446049250313e-16,
        -1.0,
        0.0,
        0.0,
        1.0,
        2.220446049250313e-16,
        0.0,
        0.0,
        0.0,
        0.0,
        1.0
      ],
      "name": "Sketchfab_model"
    },
    {
      "children": [
        2
      ],
      "name": "root"
    },
    {
      "children": [
        3,
        5
      ],
      "matrix": [
        1.0,
        0.0,
        0.0,
        0.0,
        0.0,
        2.220446049250313e-16,
        1.0,
        0.0,
        0.0,
        -1.0,
        2.220446049250313e-16,
        0.0,
        0.0,
        0.0,
        0.0,
        1.0
      ],
      "name": "GLTF_SceneRootNode"
    },
    {
      "children": [
        4
      ],
      "matrix": [
        1.3331692218780518,
        0.0,
        0.0,
        0.0,
        0.0,
        1.3331692218780518,
        0.0,
        0.0,
        0.0,
        0.0,
        1.3331692218780518,
        0.0,
        0.02379586733877659,
        0.0,
        0.0,
        1.0
      ],
      "name": "King_0"
    },
    {
      "mesh": 0,
      "name": "Object_4"
    },
    {
      "children": [
        6
      ],
      "matrix": [
        1.3331692218780518,
        0.0,
        0.0,
        0.0,
        0.0,
        1.3331692218780518,
        0.0,
        0.0,
        0.0,
        0.0,
        1.3331692218780518,
        0.0,
        -0.023575538769364357,
        0.0,
        0.0,
        1.0
      ],
      "name": "King.001_1"
    },
    {
      "mesh": 1,
      "name": "Object_6"
    }
  ],
  "scene": 0,
  "scenes": [
    {
      "name": "Sketchfab_Scene",
      "nodes": [
        0
      ]
    }
  ]
}
