{
  "accessors": [
    {
      "bufferView": 2,
      "componentType": 5126,
      "count": 3107,
      "max": [
        0.014999999664723873,
        0.059617940336465836,
        0.014999999664723873
      ],
      "min": [
        -0.014999999664723873,
        0.0,
        -0.014999999664723873
      ],
      "type": "VEC3"
    },
    {
      "bufferView": 2,
      "byteOffset": 37284,
      "componentType": 5126,
      "count": 3107,
      "max": [
        0.9238797426223755,
        1.0,
        0.9238797426223755
      ],
      "min": [
        -0.9238797426223755,
        -1.0,
        -0.9238798022270203
      ],
      "type": "VEC3"
    },
    {
      "bufferView": 1,
      "componentType": 5126,
      "count": 3107,
      "max": [
        1.0,
        0.9852222204208374
      ],
      "min": [
        -2.24789946656756e-08,
        0.008514881134033203
      ],
      "type": "VEC2"
    },
    {
      "bufferView": 0,
      "componentType": 5125,
      "count": 4737,
      "type": "SCALAR"
    },
    {
      "bufferView": 2,
      "byteOffset": 74568,
      "componentType": 5126,
      "count": 3107,
      "max": [
        0.014999999664723873,
        0.059617940336465836,
        0.014999999664723873
      ],
      "min": [
        -0.014999999664723873,
        0.0,
        -0.014999999664723873
      ],
      "type": "VEC3"
    },
    {
      "bufferView": 2,
      "byteOffset": 111852,
      "componentType": 5126,
      "count": 3107,
      "max": [
        0.9238797426223755,
        1.0,
        0.9238797426223755
      ],
      "min": [
        -0.9238797426223755,
        -1.0,
        -0.9238798022270203
      ],
      "type": "VEC3"
    },
    {
      "bufferView": 1,
      "byteOffset": 24856,
      "componentType": 5126,
      "count": 3107,
      "max": [
        1.0,
        0.9852222204208374
      ],
      "min": [
        -2.24789946656756e-08,
        0.008514881134033203
      ],
      "type": "VEC2"
    },
    {
      "bufferView": 0,
      "byteOffset": 18948,
      "componentType": 5125,
      "count": 4737,
      "type": "SCALAR"
    }
  ],
  "asset": {
    "extras": {
      "author": "danielpaulse (https://sketchfab.com/danielpaulse)",
      "license": "CC-BY-SA-4.0 (http://creativecommons.org/licenses/by-sa/4.0/)",
      "source": "https://sketchfab.com/3d-models/chess-piece-queen-3826ec9d3f91486aa9fd9f30ca934ff8",
      "title": "Chess Piece - Queen"
    },
    "generator": "Sketchfab-12.68.0",
    "version": "2.0"
  },
  "bufferViews": [
    {
      "buffer": 0,
      "byteLength": 37896,
      "name": "floatBufferViews",
      "target": 34963
    },
    {
      "buffer": 0,
      "byteLength": 49712,
      "byteOffset": 37896,
      "byteStride": 8,
      "name": "floatBufferViews",
      "target": 34962
    },
    {
      "buffer": 0,
      "byteLength": 149136,
      "byteOffset": 87608,
      "byteStride": 12,
      "name": "floatBufferViews",
      "target": 34962
    }
  ],
  "buffers": [
    {
      "byteLength": 236744,
      "uri": "queen.bin"
    }
  ],
  "materials": [
    {
      "doubleSided": true,
      "name": "Black_Square",
      "pbrMetallicRoughness": {
        "baseColorFactor": [
          0.00762073,
          0.00560855,
          0.00803688,
          1.0
        ],
        "metallicFactor": 0.875,
        "roughnessFactor": 0.15
      }
    },
    {
      "doubleSided": true,
      "name": "White_Square",
      "pbrMetallicRoughness": {
        "baseColorFactor": [
          0.882937,
          1.0,
          1.0,
          1.0
        ],
        "metallicFactor": 0.65,
        "roughnessFactor": 0.15
      }
    }
  ],
  "meshes": [
    {
      "name": "Object_0",
      "primitives": [
        {
          "attributes": {
            "NORMAL": 1,
            "POSITION": 0,
            "TEXCOORD_0": 2
          },
          "indices": 3,
          "material": 0,
          "mode": 4
        }
      ]
    },
    {
      "name": "Object_1",
      "primitives": [
        {
          "attributes": {
            "NORMAL": 5,
            "POSITION": 4,
            "TEXCOORD_0": 6
          },
          "indices": 7,
          "material": 1,
          "mode": 4
        }
      ]
    }
  ],
  "nodes": [
    {
      "children": [
        1
      ],
      "matrix": [
        1.0,
        0.0,
        0.0,
        0.0,
        0.0,
        2.220446049250313e-16,
        -1.0,
        0.0,
        0.0,
        1.0,
        2.220446049250313e-16,
        0.0,
        0.0,
        0.0,
        0.0,
        1.0
      ],
      "name": "Sketchfab_model"
    },
    {
      "children": [
        2
      ],
      "name": "root"
    },
    {
      "children": [
        3,
        5
      ],
      "matrix": [
        1.0,
        0.0,
        0.0,
        0.0,
        0.0,
        2.220446049250313e-16,
        1.0,
        0.0,
        0.0,
        -1.0,
        2.220446049250313e-16,
        0.0,
        0.0,
        0.0,
        0.0,
        1.0
      ],
      "name": "GLTF_SceneRootNode"
    },
    {
      "children": [
        4
      ],
      "matrix": [
        1.3331692218780518,
        0.0,
        0.0,
        0.0,
        0.0,
        1.3331692218780518,
        0.0,
        0.0,
        0.0,
        0.0,
        1.3331692218780518,
        0.0,
        -0.022149907425045967,
        0.0,
        0.0,
        1.0
      ],
      "name": "Queen_0"
    },
    {
      "mesh": 0,
      "name": "Object_4"
    },
    {
      "children": [
        6
      ],
      "matrix": [
        1.3331692218780518,
        0.0,
        0.0,
        0.0,
        0.0,
        1.3331692218780518,
        0.0,
        0.0,
        0.0,
        0.0,
        1.3331692218780518,
        0.0,
        0.022507162764668465,
        0.0,
        0.0,
        1.0
      ],
      "name": "Queen.001_1"
    },
    {
      "mesh": 1,
      "name": "Object_6"
    }
  ],
  "scene": 0,
  "scenes": [
    {
      "name": "Sketchfab_Scene",
      "nodes": [
        0
      ]
    }
  ]
}
