{
  "accessors": [
    {
      "bufferView": 2,
      "componentType": 5126,
      "count": 1566,
      "max": [
        0.014999999664723873,
        0.051147252321243286,
        0.014999999664723873
      ],
      "min": [
        -0.014999999664723873,
        0.0,
        -0.014999999664723873
      ],
      "type": "VEC3"
    },
    {
      "bufferView": 2,
      "byteOffset": 18792,
      "componentType": 5126,
      "count": 1566,
      "max": [
        0.949849009513855,
        1.0,
        0.955133855342865
      ],
      "min": [
        -0.9438111782073975,
        -1.0,
        -0.9695754051208496
      ],
      "type": "VEC3"
    },
    {
      "bufferView": 1,
      "componentType": 5126,
      "count": 1566,
      "max": [
        1.0,
        0.9842487573623657
      ],
      "min": [
        -2.24789946656756e-08,
        0.008514881134033203
      ],
      "type": "VEC2"
    },
    {
      "bufferView": 0,
      "componentType": 5125,
      "count": 2436,
      "type": "SCALAR"
    },
    {
      "bufferView": 2,
      "byteOffset": 37584,
      "componentType": 5126,
      "count": 1566,
      "max": [
        0.014999999664723873,
        0.051147252321243286,
        0.014999999664723873
      ],
      "min": [
        -0.014999999664723873,
        0.0,
        -0.014999999664723873
      ],
      "type": "VEC3"
    },
    {
      "bufferView": 2,
      "byteOffset": 56376,
      "componentType": 5126,
      "count": 1566,
      "max": [
        0.949849009513855,
        1.0,
        0.955133855342865
      ],
      "min": [
        -0.9438111782073975,
        -1.0,
        -0.9695754051208496
      ],
      "type": "VEC3"
    },
    {
      "bufferView": 1,
      "byteOffset": 12528,
      "componentType": 5126,
      "count": 1566,
      "max": [
        1.0,
        0.9842487573623657
      ],
      "min": [
        -2.24789946656756e-08,
        0.008514881134033203
      ],
      "type": "VEC2"
    },
    {
      "bufferView": 0,
      "byteOffset": 9744,
      "componentType": 5125,
      "count": 2436,
      "type": "SCALAR"
    }
  ],
  "asset": {
    "extras": {
      "author": "danielpaulse (https://sketchfab.com/danielpaulse)",
      "license": "CC-BY-SA-4.0 (http://creativecommons.org/licenses/by-sa/4.0/)",
      "source": "https://sketchfab.com/3d-models/chess-piece-rook-4fca9e4f830348279d52b451e64d5e43",
      "title": "Chess Piece - Rook"
    },
    "generator": "Sketchfab-12.68.0",
    "version": "2.0"
  },
  "bufferViews": [
    {
      "buffer": 0,
      "byteLength": 19488,
      "name": "floatBufferViews",
      "target": 34963
    },
    {
      "buffer": 0,
      "byteLength": 25056,
      "byteOffset": 19488,
      "byteStride": 8,
      "name": "floatBufferViews",
      "target": 34962
    },
    {
      "buffer": 0,
      "byteLength": 75168,
      "byteOffset": 44544,
      "byteStride": 12,
      "name": "floatBufferViews",
      "target": 34962
    }
  ],
  "buffers": [
    {
      "byteLength": 119712,
      "uri": "rook.bin"
    }
  ],
  "materials": [
    {
      "doubleSided": true,
      "name": "White_Square",
      "pbrMetallicRoughness": {
        "baseColorFactor": [
          0.882937,
          1.0,
          1.0,
          1.0
        ],
        "metallicFactor": 0.65,
        "roughnessFactor": 0.15
      }
    },
    {
      "doubleSided": true,
      "name": "Black_Square",
      "pbrMetallicRoughness": {
        "baseColorFactor": [
          0.00762073,
          0.00560855,
          0.00803688,
          1.0
        ],
        "metallicFactor": 0.875,
        "roughnessFactor": 0.15
      }
    }
  ],
  "meshes": [
    {
      "name": "Object_0",
      "primitives": [
        {
          "attributes": {
            "NORMAL": 1,
            "POSITION": 0,
            "TEXCOORD_0": 2
          },
          "indices": 3,
          "material": 0,
          "mode": 4
        }
      ]
    },
    {
      "name": "Object_1",
      "primitives": [
        {
          "attributes": {
            "NORMAL": 5,
            "POSITION": 4,
            "TEXCOORD_0": 6
          },
          "indices": 7,
          "material": 1,
          "mode": 4
        }
      ]
    }
  ],
  "nodes": [
    {
      "children": [
        1
      ],
      "matrix": [
        1.0,
        0.0,
        0.0,
        0.0,
        0.0,
        2.220446049250313e-16,
        -1.0,
        0.0,
        0.0,
        1.0,
        2.220446049250313e-16,
        0.0,
        0.0,
        0.0,
        0.0,
        1.0
      ],
      "name": "Sketchfab_model"
    },
    {
      "children": [
        2
      ],
      "name": "root"
    },
    {
      "children": [
        3,
        5
      ],
      "matrix": [
        1.0,
        0.0,
        0.0,
        0.0,
        0.0,
        2.220446049250313e-16,
        1.0,
        0.0,
        0.0,
        -1.0,
        2.220446049250313e-16,
        0.0,
        0.0,
        0.0,
        0.0,
        1.0
      ],
      "name": "GLTF_SceneRootNode"
    },
    {
      "children": [
        4
      ],
      "matrix": [
        1.0,
        0.0,
        0.0,
        0.0,
        0.0,
        1.0,
        0.0,
        0.0,
        0.0,
        0.0,
        1.0,
        0.0,
        0.017399245873093605,
        0.0,
        0.0,
        1.0
      ],
      "name": "Rook_0"
    },
    {
      "mesh": 0,
      "name": "Object_4"
    },
    {
      "children": [
        6
      ],
      "matrix": [
        1.0,
        0.0,
        0.0,
        0.0,
        0.0,
        1.0,
        0.0,
        0.0,
        0.0,
        0.0,
        1.0,
        0.0,
        -0.01718706078827381,
        0.0,
        0.0,
        1.0
      ],
      "name": "Rook.001_1"
    },
    {
      "mesh": 1,
      "name": "Object_6"
    }
  ],
  "scene": 0,
  "scenes": [
    {
      "name": "Sketchfab_Scene",
      "nodes": [
        0
      ]
    }
  ]
}
